<svg xmlns="http://www.w3.org/2000/svg" viewBox="0 0 600 300" fill="none"><rect width="600" height="300" fill="#f1edd9"/><defs><pattern id="grid" width="30" height="30" patternUnits="userSpaceOnUse"><path d="M30 0H0V30" stroke="#405040" stroke-opacity=".05"/></pattern></defs><rect width="600" height="300" fill="url(#grid)"/><g font-family="Georgia,serif"><circle cx="316" cy="131" r="104" fill="#e9e0b9"/><path d="M71 242H531M117 263V42" stroke="#c7bf98" stroke-width="2"/><path d="M93 259 450 49" stroke="#ad9956" stroke-width="2" stroke-dasharray="7 7"/><path d="M149 226 302 135" stroke="#887845" stroke-width="4" stroke-linecap="round"/><g transform="translate(235 174) rotate(-20)"><ellipse rx="29" ry="14" fill="#bda35d"/><ellipse cy="-5" rx="29" ry="13" fill="#e0c374"/><ellipse cy="-7" rx="16" ry="6" fill="none" stroke="#b19853" stroke-width="2"/></g><g transform="translate(347 108) rotate(-20)"><ellipse rx="29" ry="14" fill="#bda35d"/><ellipse cy="-5" rx="29" ry="13" fill="#e0c374"/><ellipse cy="-7" rx="16" ry="6" fill="none" stroke="#b19853" stroke-width="2"/></g><g transform="translate(437 56) rotate(-20)"><ellipse rx="20" ry="10" fill="#bda35d"/><ellipse cy="-4" rx="20" ry="9" fill="#e0c374"/></g><g stroke="#8d804d" stroke-width="2" fill="none"><circle cx="347" cy="105" r="43" opacity=".6"/><path d="M347 52v16m0 74v16m-53-53h16m74 0h16"/></g><g transform="translate(335 210) rotate(-5)"><rect width="112" height="36" rx="9" fill="#faf8ec"/><text x="17" y="24" fill="#897745" font-size="18" font-style="italic">a = Δy / Δx</text></g></g></svg>
